<svg xmlns="http://www.w3.org/2000/svg" viewBox="0 0 99.26 36"><title>Artboard 45</title><path d="M17.91.65,17.85.4H8.66L0,35.53H5.13a2.44,2.44,0,0,0,2.38-1.9l1.11-4.86A2.44,2.44,0,0,1,11,26.87h4.52a2.44,2.44,0,0,1,2.38,1.9L19,33.63a2.44,2.44,0,0,0,2.38,1.9h2a2.44,2.44,0,0,0,2.37-3ZM10.47,20.54c1.25-5.52,2-9.12,2.35-10.7.16-.85.31-1.66.45-2.44q.15.82.36,1.9.58,2.93.74,3.66l1.74,7.57Z"/><path d="M38.62,36c-3.5,0-6.21-1.12-8.05-3.32S27.82,27.23,27.82,23V.54h7V23.46c0,4.18,1.31,6.22,4,6.22a3.19,3.19,0,0,0,2.84-1.52,8.3,8.3,0,0,0,1-4.56V.54h7V23.08c0,4.15-1,7.37-2.85,9.57S42.2,36,38.62,36Z"/><path d="M63.59,35.53H61.45A2.44,2.44,0,0,1,59,33.09V6.82H52.43V.54H72.61V6.82H66V33.09A2.44,2.44,0,0,1,63.59,35.53Z"/><path d="M96,4.71A10.77,10.77,0,0,0,86.64,0a10.92,10.92,0,0,0-9.48,4.69C75,7.76,73.91,12.22,73.91,17.94S75,28.21,77.17,31.29A10.86,10.86,0,0,0,86.6,36,10.83,10.83,0,0,0,96,31.28c2.16-3.1,3.25-7.57,3.25-13.29S98.17,7.8,96,4.71Zm-9.43,25c-1.79,0-3.11-.94-4-2.89s-1.45-5-1.45-8.8.49-6.82,1.45-8.81S84.83,6.3,86.64,6.3C90.22,6.3,92,10.23,92,18S90.21,29.68,86.6,29.68Z"/></svg>