<svg xmlns="http://www.w3.org/2000/svg" viewBox="0 0 166.71 34.63"><title>Artboard 46</title><path d="M8.65,0l6.12,25.06h.14L21.1,0h8.7V34.13H23.16V24.22l.56-13.27-.14,0L17.07,34.13H12.64l-6.45-23-.14,0,.59,13.08v9.92H0V0Z"/><path d="M51,26.84H42l-1.83,7.29H33.45L43.06,0H50l9.59,34.13H52.86Zm-7.64-5.32h6.28L46.58,9.45h-.14Z"/><path d="M87.06,34.13H80.42L70,12.31l-.14,0V34.13H63.17V0h6.68L80.28,21.8l.14,0V0h6.64Z"/><path d="M115.43,0V23.23q0,5.46-3.2,8.43a11.84,11.84,0,0,1-8.38,3,11.81,11.81,0,0,1-8.38-3q-3.2-3-3.2-8.42V0h6.66V23.23a6.86,6.86,0,0,0,1.29,4.59,4.57,4.57,0,0,0,3.63,1.48,4.69,4.69,0,0,0,3.68-1.41q1.27-1.41,1.27-4.66V0Z"/><path d="M135.4,26.84h-9l-1.83,7.29h-6.73L127.45,0h6.94L144,34.13h-6.73Zm-7.64-5.32H134L131,9.45h-.14Z"/><path d="M154.24,28.81h12.47v5.32H147.56V0h6.68Z"/></svg>